<svg width="64" height="64" viewBox="0 0 64 64" fill="none" xmlns="http://www.w3.org/2000/svg">
<rect width="64" height="64" rx="10" fill="#363B3F"/>
<path d="M35.8129 19.8907C35.607 18.0038 37.32 16.4753 39.1713 16.894C40.369 17.1648 41.2445 18.1931 41.321 19.4186L42.2794 34.7855C42.3174 35.3953 42.2683 36.0076 42.1336 36.6036L41.0396 41.4416C40.8607 42.2329 40.0742 42.7293 39.283 42.5504C38.6712 42.412 38.2148 41.9005 38.1467 41.277L35.8129 19.8907ZM52.0435 21.8238C52.6372 20.7607 53.8599 20.2153 55.0476 20.4839C56.8869 20.8998 57.7698 23.0028 56.7786 24.6071L45.4574 42.9301C45.1278 43.4637 44.4957 43.7291 43.8839 43.5907C43.0926 43.4118 42.5962 42.6253 42.7752 41.8341L43.8677 37.0024C44.0034 36.4022 44.2247 35.8246 44.5247 35.2874L52.0435 21.8238Z" fill="white"/>
<path d="M10.5925 19.8371C11.7073 19.7237 12.7565 20.4376 13.1208 21.5573L13.1577 21.6708C13.2196 21.861 13.2611 22.0577 13.2814 22.2572L16.0704 49.6825C16.2126 51.0808 15.2518 52.3238 13.9244 52.4588C12.5971 52.5938 11.4057 51.5697 11.2635 50.1714L8.45932 22.5968C8.31797 21.2068 9.27303 19.9713 10.5925 19.8371ZM28.3497 25.2021C28.7944 26.4428 29.0969 27.8518 29.2573 29.429C29.4177 31.0062 29.39 32.5606 29.1742 34.0922C28.9819 35.5935 28.5756 36.9487 27.9555 38.158C27.3617 39.3646 26.5483 40.3699 25.5155 41.1738C24.506 41.9474 23.2658 42.409 21.7949 42.5586C20.8755 42.6521 19.9843 42.6309 19.1213 42.495C18.5659 42.4031 18.0537 42.2759 17.5847 42.1136C17.1575 41.9658 16.8754 41.5494 16.8277 41.0797C16.7043 39.8661 18.3747 38.8761 19.5323 38.8371C19.628 38.8339 19.7246 38.8273 19.8221 38.8174C20.6101 38.7372 21.2982 38.4576 21.8864 37.9784C22.5009 37.4966 22.9962 36.8871 23.3724 36.1499C23.7721 35.3824 24.054 34.5011 24.2182 33.5059C24.3795 32.4831 24.4039 31.4183 24.2914 30.3115C24.1816 29.2323 23.9593 28.2205 23.6244 27.2761C23.2895 26.3317 22.8608 25.5087 22.3383 24.807C21.8421 24.1026 21.2562 23.5611 20.5808 23.1825C19.9316 22.8012 19.1999 22.652 18.3856 22.7348C17.7027 22.8043 17.0877 23.0206 16.5408 23.3837C15.9711 23.7459 15.0341 23.4428 14.9629 22.7424L14.8001 21.142C14.7497 20.6465 14.9523 20.1553 15.3632 19.9132C15.7598 19.6795 16.1866 19.477 16.6436 19.3056C17.3594 19.0371 18.1113 18.8628 18.8993 18.7827C19.7661 18.6945 20.6587 18.7295 21.5771 18.8877C22.4955 19.046 23.3652 19.3769 24.186 19.8805C25.0331 20.3814 25.8197 21.0702 26.5458 21.9469C27.2719 22.8236 27.8732 23.9086 28.3497 25.2021Z" fill="white"/>
<path d="M35.5666 39.8349C36.0497 39.2377 36.2506 38.5533 36.1691 37.7816C36.0876 37.01 35.7497 36.3954 35.1552 35.938C34.558 35.4548 33.8735 35.254 33.1019 35.3355C32.3559 35.4142 31.7414 35.7522 31.2582 36.3494C30.7724 36.9209 30.5702 37.5925 30.6516 38.3641C30.7331 39.1358 31.0596 39.7646 31.6311 40.2504C32.2283 40.7336 32.9127 40.9344 33.6844 40.8529C34.456 40.7715 35.0835 40.4321 35.5666 39.8349Z" fill="white"/>
<path d="M34.1012 18.1946C34.1827 18.9663 33.9818 19.6507 33.4987 20.2479C33.0155 20.8451 32.3881 21.1844 31.6165 21.2659C30.8448 21.3474 30.1603 21.1466 29.5631 20.6634C28.9917 20.1776 28.6652 19.5488 28.5837 18.7771C28.5023 18.0054 28.7044 17.3339 29.1903 16.7624C29.6734 16.1652 30.288 15.8272 31.0339 15.7485C31.8056 15.667 32.4901 15.8678 33.0873 16.351C33.6817 16.8084 34.0197 17.4229 34.1012 18.1946Z" fill="white"/>
</svg>
