<svg width="57" height="20" viewBox="0 0 57 20" fill="none" xmlns="http://www.w3.org/2000/svg">
<path d="M1.43678 0.78125C2.09992 0.78125 2.67491 1.23987 2.82236 1.8864L2.83731 1.95193C2.86236 2.06176 2.875 2.17404 2.875 2.28668V17.7734C2.875 18.563 2.23491 19.2031 1.44531 19.2031V19.2031C0.655718 19.2031 0.015625 18.563 0.015625 17.7734V2.20241C0.015625 1.41753 0.6519 0.78125 1.43678 0.78125V0.78125ZM11.5703 4.78906C11.7578 5.50781 11.8516 6.3125 11.8516 7.20312C11.8516 8.09375 11.7422 8.96094 11.5234 9.80469C11.3203 10.6328 11 11.3672 10.5625 12.0078C10.1406 12.6484 9.60156 13.1641 8.94531 13.5547C8.30469 13.9297 7.54688 14.1172 6.67188 14.1172C6.125 14.1172 5.60156 14.0547 5.10156 13.9297C4.7801 13.8467 4.48616 13.7466 4.21976 13.6292C3.97704 13.5223 3.83594 13.2735 3.83594 13.0083V13.0083C3.83594 12.323 4.87868 11.8646 5.56257 11.9086C5.61914 11.9122 5.67641 11.9141 5.73438 11.9141C6.20312 11.9141 6.625 11.7969 7 11.5625C7.39062 11.3281 7.71875 11.0156 7.98438 10.625C8.26562 10.2188 8.48438 9.74219 8.64062 9.19531C8.79688 8.63281 8.875 8.03906 8.875 7.41406C8.875 6.80469 8.80469 6.22656 8.66406 5.67969C8.52344 5.13281 8.32031 4.64844 8.05469 4.22656C7.80469 3.80469 7.49219 3.46875 7.11719 3.21875C6.75781 2.96875 6.33594 2.84375 5.85156 2.84375C5.44531 2.84375 5.07031 2.92969 4.72656 3.10156V3.10156C4.36946 3.27161 3.83594 3.04897 3.83594 2.65344V1.74974C3.83594 1.46991 3.98459 1.2069 4.24105 1.09494C4.48853 0.986893 4.75193 0.897955 5.03125 0.828125C5.46875 0.71875 5.92188 0.664062 6.39062 0.664062C6.90625 0.664062 7.42969 0.734375 7.96094 0.875C8.49219 1.01562 8.98438 1.25 9.4375 1.57812C9.90625 1.90625 10.3281 2.33594 10.7031 2.86719C11.0781 3.39844 11.3672 4.03906 11.5703 4.78906Z" fill="white"/>
<path d="M14.2744 0.78125C14.9384 0.78125 15.5135 1.24178 15.6588 1.8897L15.678 1.97551C15.7026 2.08525 15.715 2.19737 15.715 2.30983V12.5703C15.715 13.3599 15.0749 14 14.2853 14V14C13.4957 14 12.8556 13.3599 12.8556 12.5703V2.19999C12.8556 1.41644 13.4908 0.78125 14.2744 0.78125V0.78125ZM26.4728 0.640625C27.0041 0.640625 27.5041 0.75 27.9728 0.96875C28.4416 1.17188 28.8478 1.46875 29.1916 1.85938C29.5509 2.25 29.8244 2.71875 30.0119 3.26562C30.215 3.79688 30.3166 4.375 30.3166 5V12.5938C30.3166 13.3704 29.687 14 28.9103 14V14C28.1337 14 27.5041 13.3704 27.5041 12.5937V6.80469C27.5041 6.27344 27.4963 5.77344 27.4806 5.30469C27.4806 4.82031 27.4338 4.39062 27.34 4.01562C27.2463 3.64062 27.09 3.35156 26.8713 3.14844C26.6681 2.92969 26.3478 2.82031 25.9103 2.82031C25.8009 2.82031 25.5666 2.84375 25.2072 2.89062V2.89062C24.6022 2.96954 23.965 2.58973 23.965 1.97959V1.9305C23.965 1.6249 24.1242 1.33787 24.3978 1.20159C24.6798 1.06108 24.9652 0.944402 25.2541 0.851562C25.6916 0.710938 26.0978 0.640625 26.4728 0.640625ZM22.4181 2.44531C22.6056 2.72656 22.7384 3.03125 22.8166 3.35938C22.9103 3.67188 22.965 4 22.9806 4.34375C23.0119 4.6875 23.0197 5.04688 23.0041 5.42188C23.0041 5.78125 23.0041 6.16406 23.0041 6.57031V12.582C23.0041 13.3652 22.3692 14 21.5861 14V14C20.803 14 20.1681 13.3652 20.1681 12.582V6.80469C20.1681 6.27344 20.1681 5.77344 20.1681 5.30469C20.1681 4.82031 20.1213 4.39062 20.0275 4.01562C19.9338 3.64062 19.7775 3.35156 19.5588 3.14844C19.34 2.92969 19.0197 2.82031 18.5978 2.82031C18.4103 2.82031 18.1291 2.85938 17.7541 2.9375V2.9375C17.2344 3.02788 16.6759 2.67896 16.6759 2.1515V1.9296C16.6759 1.62488 16.8359 1.33891 17.1104 1.2066C17.3549 1.08873 17.6085 0.986011 17.8713 0.898438C18.3088 0.757812 18.7384 0.6875 19.1603 0.6875C19.8791 0.6875 20.4806 0.835938 20.965 1.13281C21.465 1.42969 21.9494 1.86719 22.4181 2.44531Z" fill="white"/>
<path d="M33.5959 0.78125C34.253 0.78125 34.8227 1.23566 34.9688 1.87626L34.9861 1.95193C35.0111 2.06176 35.0238 2.17404 35.0238 2.28668V12.582C35.0238 13.3652 34.3889 14 33.6058 14V14C32.8227 14 32.1878 13.3652 32.1878 12.582V2.18937C32.1878 1.41169 32.8183 0.78125 33.5959 0.78125V0.78125ZM42.0316 2.23438C42.2972 2.5 42.5003 2.8125 42.6409 3.17188C42.7972 3.51562 42.9066 3.88281 42.9691 4.27344C43.0472 4.64844 43.0941 5.03125 43.1097 5.42188C43.1253 5.8125 43.1331 6.19531 43.1331 6.57031V13.5312V13.5312C43.1331 13.7901 42.9233 14 42.6644 14H41.7034C40.9138 14 40.2738 13.3599 40.2738 12.5703V6.80469C40.2738 6.27344 40.2503 5.76562 40.2034 5.28125C40.1566 4.79688 40.0472 4.36719 39.8753 3.99219C39.7034 3.61719 39.4691 3.32812 39.1722 3.125C38.8753 2.90625 38.4613 2.79688 37.93 2.79688C37.7113 2.79688 37.4144 2.83594 37.0394 2.91406V2.91406C36.5284 3.00293 35.9847 2.65331 35.9847 2.13464V1.9452C35.9847 1.63329 36.1572 1.34426 36.4423 1.21788C36.7298 1.09048 37.0304 0.976188 37.3441 0.875C37.8441 0.71875 38.3284 0.640625 38.7972 0.640625C39.5003 0.640625 40.0941 0.789062 40.5784 1.08594C41.0628 1.36719 41.5472 1.75 42.0316 2.23438Z" fill="white"/>
<path d="M44.9451 2.76266C44.6073 1.79376 45.3266 0.78125 46.3527 0.78125V0.78125C47.0127 0.78125 47.5941 1.21518 47.7818 1.84787L50.1131 9.70379C50.2068 10.0194 50.2544 10.3469 50.2544 10.6761V13.299C50.2544 13.7379 49.8985 14.0938 49.4596 14.0938V14.0938C49.1215 14.0938 48.8204 13.8799 48.7091 13.5606L44.9451 2.76266ZM53.7117 1.83771C53.8993 1.21075 54.4761 0.78125 55.1306 0.78125V0.78125C56.15 0.78125 56.8646 1.7872 56.5291 2.74983L52.7605 13.5606C52.6493 13.8799 52.3482 14.0938 52.0101 14.0938V14.0938C51.5711 14.0938 51.2153 13.7379 51.2153 13.299V10.6796C51.2153 10.3481 51.2636 10.0184 51.3586 9.70078L53.7117 1.83771Z" fill="white"/>
</svg>
